<?xml version="1.0" encoding="utf-8"?>
<!-- Generator: Adobe Illustrator 26.0.0, SVG Export Plug-In . SVG Version: 6.00 Build 0)  -->
<svg version="1.1" xmlns="http://www.w3.org/2000/svg" xmlns:xlink="http://www.w3.org/1999/xlink" x="0px" y="0px"
	 viewBox="0 0 819.6 800" style="enable-background:new 0 0 819.6 800;" xml:space="preserve">
<style type="text/css">
	.st0{fill:#636368;}
	.st1{fill:#FFCE00;}
	.st2{fill:#E07188;}
	.st3{fill:#CE0000;}
	.st4{fill:#F8F8F9;}
	.st5{fill:#EDEDED;}
	.st6{fill:#313133;}
	.st7{fill:none;stroke:#FFFFFF;stroke-miterlimit:10;}
</style>
<g id="Layer_1">
	<path class="st0" d="M687.2,511.8v-44.3c0-110.2-89.3-199.5-199.5-199.5h-44.3l0,243.9L687.2,511.8z"/>
	<path class="st1" d="M487.7,800c183.7,0,332.5-148.9,332.5-332.5l-376.9,0l0,332.5H487.7z"/>
	<path class="st2" d="M487.7,800l0-532c0-146.9-119.1-266-266-266L0,1.9L0,800L487.7,800z"/>
	<path class="st3" d="M243.9,800l0-797.1c-7.3-0.6-14.7-0.9-22.2-0.9L0,1.9L0,800L243.9,800z"/>
	<circle class="st4" cx="243.9" cy="556.1" r="133"/>
	<path class="st5" d="M243.9,689.2l0-266c-73.5,0-133,59.6-133,133S170.4,689.2,243.9,689.2z"/>
	<path class="st6" d="M243.9,511.8L243.9,511.8c24.5,0,44.3,19.9,44.3,44.3c0,24.5-19.9,44.3-44.3,44.3c-24.4,0-44.3-19.9-44.3-44.3
		C199.5,531.7,219.4,511.8,243.9,511.8z"/>
</g>
<g id="Layer_2">
	<path class="st7" d="M687.2,511.8v-44.3c0-110.2-89.3-199.5-199.5-199.5h-44.3l0,243.9L687.2,511.8z"/>
	<path class="st7" d="M487.7,800c183.7,0,332.5-148.9,332.5-332.5l-376.9,0l0,332.5H487.7z"/>
	<path class="st7" d="M487.7,800l0-532c0-146.9-119.1-266-266-266L0,1.9L0,800L487.7,800z"/>
	<path class="st7" d="M243.9,800l0-797.1c-7.3-0.6-14.7-0.9-22.2-0.9L0,1.9L0,800L243.9,800z"/>
	<circle class="st7" cx="243.9" cy="556.1" r="133"/>
	<path class="st7" d="M243.9,689.2l0-266c-73.5,0-133,59.6-133,133S170.4,689.2,243.9,689.2z"/>
	<path class="st7" d="M243.9,511.8L243.9,511.8c24.5,0,44.3,19.9,44.3,44.3c0,24.5-19.9,44.3-44.3,44.3c-24.4,0-44.3-19.9-44.3-44.3
		C199.5,531.7,219.4,511.8,243.9,511.8z"/>
</g>
</svg>
