<?xml version="1.0" encoding="utf-8"?>
<!-- Generator: Adobe Illustrator 26.0.0, SVG Export Plug-In . SVG Version: 6.00 Build 0)  -->
<svg version="1.1" xmlns="http://www.w3.org/2000/svg" xmlns:xlink="http://www.w3.org/1999/xlink" x="0px" y="0px"
	 viewBox="0 0 128 128" style="enable-background:new 0 0 128 128;" xml:space="preserve">
<style type="text/css">
	.st0{fill:#636368;}
	.st1{fill:#FFCE00;}
	.st2{fill:#E07188;}
	.st3{fill:#CE0000;}
	.st4{fill:#F8F8F9;}
	.st5{fill:#EDEDED;}
	.st6{fill:#313133;}
	.st7{fill:none;stroke:#FFFFFF;stroke-miterlimit:10;}
</style>
<g id="Layer_1">
	<path class="st0" d="M105.7,81.6v-7c0-17.5-14.2-31.6-31.6-31.6h-7l0,38.6L105.7,81.6z"/>
	<path class="st1" d="M74.1,127.2c29.1,0,52.7-23.6,52.7-52.7l-59.7,0l0,52.7H74.1z"/>
	<path class="st2" d="M74.1,127.2l0-84.3c0-23.3-18.9-42.2-42.2-42.2l-35.1,0l0,126.5L74.1,127.2z"/>
	<path class="st3" d="M35.5,127.2l0-126.3c-1.2-0.1-2.3-0.1-3.5-0.1l-35.1,0l0,126.5L35.5,127.2z"/>
	<circle class="st4" cx="35.5" cy="88.6" r="21.1"/>
	<path class="st5" d="M35.5,109.7l0-42.2c-11.6,0-21.1,9.4-21.1,21.1S23.8,109.7,35.5,109.7z"/>
	<path class="st6" d="M35.5,81.6L35.5,81.6c3.9,0,7,3.2,7,7c0,3.9-3.2,7-7,7c-3.9,0-7-3.2-7-7C28.4,84.7,31.6,81.6,35.5,81.6z"/>
</g>
<g id="Layer_2">
	<path class="st7" d="M105.7,81.6v-7c0-17.5-14.2-31.6-31.6-31.6h-7l0,38.6L105.7,81.6z"/>
	<path class="st7" d="M74.1,127.2c29.1,0,52.7-23.6,52.7-52.7l-59.7,0l0,52.7H74.1z"/>
	<path class="st7" d="M74.1,127.2l0-84.3c0-23.3-18.9-42.2-42.2-42.2l-35.1,0l0,126.5L74.1,127.2z"/>
	<path class="st7" d="M35.5,127.2l0-126.3c-1.2-0.1-2.3-0.1-3.5-0.1l-35.1,0l0,126.5L35.5,127.2z"/>
	<circle class="st7" cx="35.5" cy="88.6" r="21.1"/>
	<path class="st7" d="M35.5,109.7l0-42.2c-11.6,0-21.1,9.4-21.1,21.1S23.8,109.7,35.5,109.7z"/>
	<path class="st7" d="M35.5,81.6L35.5,81.6c3.9,0,7,3.2,7,7c0,3.9-3.2,7-7,7c-3.9,0-7-3.2-7-7C28.4,84.7,31.6,81.6,35.5,81.6z"/>
</g>
</svg>
